<svg width="58" height="51" viewBox="0 0 58 51" fill="none" xmlns="http://www.w3.org/2000/svg">
<path d="M52.5 6H51.0059V4.50586C51.0059 3.25586 50.5664 2.19141 49.6875 1.3125C48.8086 0.433594 47.7441 -0.00585938 46.4941 -0.00585938H4.51172C3.26172 -0.00585938 2.19727 0.433594 1.31836 1.3125C0.439453 2.19141 0 3.25586 0 4.50586V10.5117C0 11.7422 0.439453 12.7969 1.31836 13.6758C2.19727 14.5547 3.26172 14.9941 4.51172 14.9941H46.4941C47.7441 14.9941 48.8086 14.5547 49.6875 13.6758C50.5664 12.7969 51.0059 11.7422 51.0059 10.5117V8.98828H52.5C52.9102 8.98828 53.2617 9.13477 53.5547 9.42773C53.8477 9.7207 53.9941 10.082 53.9941 10.5117V16.4883C53.9941 16.918 53.8477 17.2793 53.5547 17.5723C53.2617 17.8652 52.9102 18.0117 52.5 18.0117H28.5059C27.2559 18.0117 26.1914 18.4512 25.3125 19.3301C24.4336 20.209 23.9941 21.2637 23.9941 22.4941V27.2695C23.1348 27.5625 22.4219 28.0996 21.8555 28.8809C21.2891 29.6426 21.0059 30.5117 21.0059 31.4883V46.4883C21.0059 47.7383 21.4453 48.8027 22.3242 49.6816C23.2031 50.5605 24.2578 51 25.4883 51C26.7383 51 27.8027 50.5605 28.6816 49.6816C29.5605 48.8027 30 47.7383 30 46.4883V31.4883C30 30.5117 29.7168 29.6426 29.1504 28.8809C28.584 28.0996 27.8711 27.5625 27.0117 27.2695V22.4941C27.0117 22.084 27.1582 21.7324 27.4512 21.4395C27.7441 21.1465 28.0957 21 28.5059 21H52.5C53.75 21 54.8145 20.5605 55.6934 19.6816C56.5723 18.8027 57.0117 17.7383 57.0117 16.4883V10.5117C57.0117 9.26172 56.5723 8.19727 55.6934 7.31836C54.8145 6.43945 53.75 6 52.5 6ZM47.9883 10.5117C47.9883 10.9219 47.8418 11.2734 47.5488 11.5664C47.2559 11.8594 46.9043 12.0059 46.4941 12.0059H4.51172C4.08203 12.0059 3.7207 11.8594 3.42773 11.5664C3.13477 11.2734 2.98828 10.9219 2.98828 10.5117V4.50586C2.98828 4.0957 3.13477 3.74414 3.42773 3.45117C3.7207 3.1582 4.08203 3.01172 4.51172 3.01172H46.4941C46.9043 3.01172 47.2559 3.1582 47.5488 3.45117C47.8418 3.74414 47.9883 4.0957 47.9883 4.50586V10.5117ZM27.0117 46.4883C27.0117 46.918 26.8652 47.2793 26.5723 47.5723C26.2793 47.8652 25.918 48.0117 25.4883 48.0117C25.0781 48.0117 24.7266 47.8652 24.4336 47.5723C24.1406 47.2793 23.9941 46.918 23.9941 46.4883V31.4883C23.9941 31.0781 24.1406 30.7266 24.4336 30.4336C24.7266 30.1406 25.0781 29.9941 25.4883 29.9941C25.918 29.9941 26.2793 30.1406 26.5723 30.4336C26.8652 30.7266 27.0117 31.0781 27.0117 31.4883V46.4883Z" fill="white"/>
</svg>
